{"title":"Deliverance.1972.1080p.BluRay.DTS.x264-GKNByNW","uid":11201580,"size":9147108804,"categoryP":"video","categoryS":"hd___movies","magnet":"?xt=urn:btih:7f47168f892be975f5c600c6a6e8289667e74877&amp;dn=Deliverance.1972.1080p.BluRay.DTS.x264-GKNByNW&amp;tr=udp%3A%2F%2Ftracker.openbittorrent.com%3A80&amp;tr=udp%3A%2F%2Fopen.demonii.com%3A1337&amp;tr=udp%3A%2F%2Ftracker.coppersurfer.tk%3A6969&amp;tr=udp%3A%2F%2Fexodus.desync.com%3A6969","seeders":0,"leechers":1,"uploader":"GKNByNW","files":8,"time":1413174327,"description":"Release Title : Deliverance.1972.1080p.BluRay.DTS.x264-GKNByNW\nRelease Date : 30 July 1972 (USA)\nRelease Length : 1:49:03\nGenre : Adventure | Drama | Thriller\nLanguage : English\nSource : Deliverance.COMPLETE.BLURAY-TAPAS\nTotal Size : 8.51GB\n\nimdB\n---- &lt;a href=&quot;\nhttp://www.imdb.com/title/tt0068473/&quot; rel=&quot;nofollow&quot; target=&quot;_NEW&quot;&gt;\nhttp://www.imdb.com/title/tt0068473/&lt;/a&gt;\n\nStoryline: The Cahulawassee River valley in Northern Georgia\nis one of the last natural pristine areas of the state, which\nwill soon change with the imminent building of a dam on the\nriver, which in turn will flood much of the surrounding land.\nAs such, four Atlanta city slickers - alpha male Lewis Medlock,\ngenerally even-keeled Ed Gentry, slightly condescending Bobby\nTrippe, and wide-eyed Drew Ballinger - decide to take a\nmulti-day canoe trip on the river, with only Lewis and Ed\nhaving experience in outdoor life. They know going in that the\narea is ethno-culturally homogeneous and isolated, but don't\nunderstand the full extent of such until they arrive and see\nwhat they believe is the result of generations of inbreeding.\nTheir relatively peaceful trip takes a turn for the worse when\nhalf way through they encounter a couple of hillbilly\nmoonshiners. That encounter not only makes the four battle\ntheir way out of the valley intact and alive, but threatens\nthe relationships of the four as they do ...\n\nCast\n----\nJon Voight\t\t~\tEd\nBurt Reynolds\t\t~\tLewis\nNed Beatty\t\t~\tBobby\nRonny Cox\t\t~\tDrew\nEd Ramey\t\t~\tOld Man\nBilly Redden\t\t~\tLonnie\nSeamon Glass\t\t~\tFirst Griner\nRandall Deal\t\t~\tSecond Griner\nBill McKinney\t\t~\tMountain Man\nHerbert 'Cowboy' Coward\t~\tToothless Man\nLewis Crone\t\t~\tFirst Deputy\nKen Keener\t\t~\tSecond Deputy\nJohnny Popwell\t\t~\tAmbulance Driver\nJohn Fowler\t\t~\tDoctor\nKathy Rickman\t\t~\tNurse\n\n~~~~~~~~~~~~~~~~~~~~\n\nVideo Information\n-----------------\nID : 1\nFormat : AVC\nFormat/Info : Advanced Video Codec\nFormat profile : &lt;a class=&quot;__cf_email__&quot; href=&quot;/cdn-cgi/l/email-protection&quot; data-cfemail=&quot;6a22030d022a265e445b&quot;&gt;[email&amp;#160;protected]&lt;/a&gt;&lt;script cf-hash='f9e31' type=&quot;text/javascript&quot;&gt;\n/* &lt;![CDATA[ */!function(){try{var t=&quot;currentScript&quot;in document?document.currentScript:function(){for(var t=document.getElementsByTagName(&quot;script&quot;),e=t.length;e--;)if(t[e].getAttribute(&quot;cf-hash&quot;))return t[e]}();if(t&amp;&amp;t.previousSibling){var e,r,n,i,c=t.previousSibling,a=c.getAttribute(&quot;data-cfemail&quot;);if(a){for(e=&quot;&quot;,r=parseInt(a.substr(0,2),16),n=2;a.length-n;n+=2)i=parseInt(a.substr(n,2),16)^r,e+=String.fromCharCode(i);e=document.createTextNode(e),c.parentNode.replaceChild(e,c)}}}catch(u){}}();/* ]]&gt; */&lt;/script&gt;\nFormat settings, CABAC : Yes\nFormat settings, ReFrames : 5 frames\nCodec ID : V_MPEG4/ISO/AVC\nDuration : 1h 49mn\nBit rate : 9 646 Kbps\nWidth : 1 920 pixels\nHeight : 800 pixels\nDisplay aspect ratio : 2.40:1\nFrame rate mode : Constant\nFrame rate : 23.976 fps\nColor space : YUV\nChroma subsampling : 4:2:0\nBit depth : 8 bits\nScan type : Progressive\nBits/(Pixel*Frame) : 0.262\nStream size : 7.19 GiB (84%)\nWriting library : x264 core 138 r2358 9e941d1\n\nAudio Information\n-----------------\nID : 2\nFormat : DTS\nFormat/Info : Digital Theater Systems\nMode : 16\nFormat settings, Endianness : Big\nCodec ID : A_DTS\nDuration : 1h 49mn\nBit rate mode : Constant\nBit rate : 1 509 Kbps\nChannel(s) : 6 channels\nChannel positions : Front: L C R, Side: L R, LFE\nSampling rate : 48.0 KHz\nBit depth : 24 bits\nCompression mode : Lossy\nStream size : 1.15 GiB (14%)\nTitle : English\nLanguage : English\nDefault : Yes\nForced : No\n\nText #1 Information\n----------------\nID : 3\nFormat : PGS\nMuxing mode : zlib\nCodec ID : S_HDMV/PGS\nCodec ID/Info : The same subtitle format used on BDs/HD-DVDs\nTitle : English SDH\nLanguage : English\nDefault : No\nForced : No\n\nChapters : Yes\n\n~~~~~~~~~~~~~~~~~~~~\n\nPlease seed as much as you take.\n\n---==* GKNByNW *==---","torrent":{"xt":"urn:btih:7f47168f892be975f5c600c6a6e8289667e74877","amp;dn":"Deliverance.1972.1080p.BluRay.DTS.x264-GKNByNW","amp;tr":["udp%3A%2F%2Ftracker.openbittorrent.com%3A80","udp%3A%2F%2Fopen.demonii.com%3A1337","udp%3A%2F%2Ftracker.coppersurfer.tk%3A6969","udp%3A%2F%2Fexodus.desync.com%3A6969"],"infoHash":"7f47168f892be975f5c600c6a6e8289667e74877","infoHashBuffer":{"type":"Buffer","data":[127,71,22,143,137,43,233,117,245,198,0,198,166,232,40,150,103,231,72,119]},"announce":[],"urlList":[]}}